<svg xmlns="http://www.w3.org/2000/svg" width="5622" height="3094" viewBox="0 0 5622 3094" version="1.1"><path d="M 2738.500 0.611 C 2496.220 5.527, 2286.114 18.195, 2084.500 40.044 C 1619.431 90.443, 1231.581 196.287, 916.478 358.795 C 578.995 532.845, 305.780 783.437, 134.917 1075.639 C 88.390 1155.208, 50.255 1236.420, 19.703 1321 C 0.024 1375.476, -1.841 1383.501, 2.900 1393.294 C 6.871 1401.496, 16.865 1408, 25.497 1408 C 33.922 1408, 44.241 1402.301, 47.609 1395.789 C 48.471 1394.123, 53.147 1381.001, 58.001 1366.629 C 150.386 1093.080, 328.965 844.493, 581.177 638.350 C 749.165 501.048, 944.994 388.623, 1167.500 301.745 C 1491.542 175.223, 1873.709 100.130, 2359.500 67.526 C 2618.925 50.114, 2877.751 46.384, 3122.500 56.531 C 3184.931 59.119, 3206.471 60.273, 3208 61.114 C 3208.828 61.570, 3200.098 61.955, 3188.500 61.975 C 3166.544 62.012, 3118.111 63.257, 3070.500 65.008 C 2774.753 75.885, 2469.621 107.080, 2145.500 159.574 C 1988.643 184.978, 1826.619 216.130, 1711.116 243.090 C 1697.027 246.379, 1673.800 251.542, 1659.500 254.564 C 1492.175 289.926, 1342.889 337.344, 1200 400.516 C 1185.975 406.717, 1163.700 416.501, 1150.500 422.260 C 981.344 496.051, 833.036 583.821, 705 685.911 C 661.078 720.932, 628.880 749.916, 584.468 794.408 C 550.990 827.948, 534.661 845.493, 507.712 876.887 C 403.679 998.076, 318.624 1139.107, 263.993 1281 C 190.618 1471.576, 168.912 1662.938, 200.034 1844.858 C 223.136 1979.896, 276.149 2109.136, 358.428 2231 C 456.917 2376.872, 596.123 2508.841, 760 2611.694 C 883.739 2689.356, 1019.076 2752.513, 1184.891 2809.974 C 1198.976 2814.856, 1219.725 2822.435, 1231 2826.817 C 1393.452 2889.961, 1596.524 2946.864, 1817 2991.022 C 2058.114 3039.314, 2294.879 3067.217, 2546.500 3076.994 C 2561.350 3077.571, 2574.850 3078.259, 2576.500 3078.522 C 2586.369 3080.094, 2700.109 3087.103, 2754 3089.460 C 2834.084 3092.962, 2859.749 3093.461, 2960 3093.464 C 3060.608 3093.466, 3087.340 3092.935, 3161 3089.470 C 3339.296 3081.084, 3512.245 3061.292, 3676.659 3030.459 C 4220.371 2928.495, 4705.514 2698.756, 5067.987 2371.595 C 5112.765 2331.180, 5177.668 2267.092, 5214.421 2227 C 5289.124 2145.510, 5346.154 2073.204, 5402.928 1988 C 5459.383 1903.273, 5497.081 1833.008, 5533.109 1745.357 C 5585.732 1617.332, 5614.187 1494.733, 5621.065 1366.388 C 5622.624 1337.303, 5621.763 1260.274, 5619.597 1235 C 5610.394 1127.617, 5588.218 1036.999, 5548.997 946.500 C 5541.272 928.674, 5523.372 892.614, 5513.531 875.053 C 5457.873 775.726, 5399.908 698.861, 5321.535 620.456 C 5137.561 436.407, 4892.162 306.357, 4556.500 215.023 C 4410.031 175.169, 4229.185 138.617, 4056.500 113.963 C 4044.400 112.236, 4016.950 107.516, 3995.500 103.475 C 3678.125 43.684, 3378.686 12.495, 3020.500 1.921 C 2987.641 0.951, 2771.284 -0.054, 2738.500 0.611 M 3232 111.683 C 2948.707 114.119, 2629.479 139.853, 2309 186.088 C 2246.109 195.161, 2116.369 215.495, 2101.876 218.550 C 2099.379 219.077, 2099.254 219.404, 2099.298 225.302 C 2099.353 232.707, 2096.870 238.976, 2091.923 243.923 C 2086.251 249.596, 2082.128 250.805, 2064.446 251.982 C 1941.385 260.175, 1830.292 273.888, 1720 294.500 C 1662.910 305.169, 1535.768 339.119, 1439 369.534 C 1343.176 399.652, 1226.694 443.249, 1167.500 471.151 C 1101.289 502.360, 1022.475 547.153, 956.500 591.069 C 739.017 735.838, 580.781 910.572, 472.527 1125.500 C 316.778 1434.727, 291.191 1780.260, 403.470 2058.039 C 436.977 2140.936, 485.981 2225.184, 543.868 2299.416 C 574.586 2338.805, 598.300 2365.422, 638.439 2405.561 C 680.689 2447.810, 713.461 2476.812, 759.500 2512.691 C 877.649 2604.766, 1022.916 2686.879, 1189.500 2755.749 C 1259.948 2784.874, 1416.615 2829.519, 1583.106 2867.913 C 1883.142 2937.105, 2182.517 2988.381, 2447.500 3015.967 C 2546.048 3026.225, 2557.896 3026.830, 2676.500 3027.657 C 2779.409 3028.374, 2843.445 3027.080, 2934 3022.455 C 3512.697 2992.899, 4065.046 2851.277, 4553 2607.344 C 4907.567 2430.092, 5163.101 2230.187, 5334.804 1995.736 C 5398.883 1908.240, 5459.905 1795.682, 5496.759 1697 C 5535.700 1592.732, 5557.742 1493.429, 5566.679 1382 C 5569.125 1351.500, 5569.135 1272.210, 5566.696 1242.365 C 5556.832 1121.640, 5529.569 1022.005, 5478.476 919.952 C 5452.917 868.901, 5426.940 828.706, 5388.108 780.121 C 5352.451 735.509, 5300.047 682.276, 5252 641.861 C 5101.886 515.591, 4899.602 410.313, 4639 322.829 C 4453.516 260.562, 4248.779 206.249, 4044.085 165.011 C 4016.010 159.355, 4007.953 158.133, 3955.500 151.573 C 3794.572 131.448, 3640.336 119.595, 3466.500 113.993 C 3424.441 112.638, 3313.021 110.982, 3282 111.251 C 3268.525 111.368, 3246.025 111.563, 3232 111.683 M 513.245 950.250 C 417.847 1070.355, 345.751 1198.397, 298.011 1332.500 C 248.136 1472.601, 228.116 1616.938, 239.521 1754.188 C 246.917 1843.179, 267.408 1930.470, 300.512 2014 C 343.965 2123.642, 410.802 2229.998, 495.850 2324.837 C 518.990 2350.641, 521.975 2353.590, 511.201 2340 C 386.775 2183.049, 313.431 2011.297, 289.571 1821 C 283.533 1772.846, 281.579 1739.750, 281.569 1685.500 C 281.561 1639.975, 282.414 1619.915, 286.064 1579.834 C 298.927 1438.556, 337.171 1296.424, 399.568 1158 C 410.592 1133.544, 438.545 1078.088, 451.487 1055 C 471.581 1019.152, 497.296 977.491, 517.687 947.750 C 522.872 940.188, 526.898 934, 526.633 934 C 526.368 934, 520.344 941.313, 513.245 950.250 M 4635.500 2622.634 C 4613.284 2634.478, 4527.486 2677.236, 4498.500 2690.909 C 4221.720 2821.464, 3928.592 2920.168, 3627 2984.369 C 3610.225 2987.939, 3590.200 2992.204, 3582.500 2993.845 C 3574.800 2995.487, 3569.089 2996.868, 3569.810 2996.915 C 3570.530 2996.962, 3584.632 2994.739, 3601.146 2991.976 C 3975.922 2929.263, 4324.808 2805.950, 4627.500 2629.213 C 4648.050 2617.214, 4653.424 2613.882, 4651.950 2614.052 C 4651.703 2614.081, 4644.300 2617.943, 4635.500 2622.634" stroke="none" fill="#231f20" fill-rule="evenodd"/></svg>